<svg width="16" height="16" viewBox="0 0 16 16" fill="none" xmlns="http://www.w3.org/2000/svg">
<g clip-path="url(#clip0_0_516)">
<path fill-rule="evenodd" clip-rule="evenodd" d="M5.0761 2.17114V11.5711C4.5641 11.4639 3.9689 11.5047 3.3785 11.7231C2.0497 12.2167 1.5809 13.4175 1.9329 14.4047C2.2849 15.3927 3.3249 15.7919 4.6529 15.2983C5.7809 14.8799 6.5201 13.9503 6.5017 13.0751C6.5017 13.0751 6.5017 8.09034 6.5017 5.31034L12.1257 4.02154V9.98634C11.6129 9.87994 11.0177 9.91994 10.4273 10.1391C9.0993 10.6327 8.6305 11.8335 8.9825 12.8207C9.3337 13.8087 10.3737 14.2079 11.7017 13.7151C12.8305 13.2959 13.5689 12.3663 13.5513 11.4919V0.350342L5.0761 2.17114Z" fill="white"/>
</g>
<defs>
<clipPath id="clip0_0_516">
<rect width="16" height="16" fill="white"/>
</clipPath>
</defs>
</svg>
